<svg width="95" height="73" viewBox="0 0 95 73" fill="none" xmlns="http://www.w3.org/2000/svg">
<path d="M79.8839 6.11373C73.7795 3.25762 67.2524 1.18192 60.4284 0C59.5904 1.51518 58.6113 3.55314 57.9362 5.17432C50.6822 4.08341 43.4948 4.08341 36.3742 5.17432C35.6993 3.55314 34.698 1.51518 33.8524 0C27.0211 1.18192 20.4864 3.26525 14.382 6.12886C2.06934 24.7349 -1.26842 42.8789 0.400462 60.7652C8.56688 66.8636 16.4811 70.5683 24.2618 72.9925C26.1829 70.3485 27.8963 67.5379 29.3723 64.5758C26.5611 63.5076 23.8687 62.1895 21.3246 60.6592C21.9996 60.1591 22.6598 59.6364 23.2976 59.0985C38.8145 66.3561 55.674 66.3561 71.0055 59.0985C71.6508 59.6364 72.3109 60.1591 72.9784 60.6592C70.4269 62.197 67.727 63.5151 64.9159 64.5834C66.3919 67.5379 68.0979 70.3562 70.0264 73C77.8146 70.5758 85.7361 66.8713 93.9026 60.7652C95.8608 40.0304 90.5574 22.0531 79.8839 6.11373ZM31.4862 49.7653C26.8282 49.7653 23.0083 45.4167 23.0083 40.1213C23.0083 34.8258 26.7466 30.4698 31.4862 30.4698C36.2259 30.4698 40.0458 34.8182 39.9642 40.1213C39.9716 45.4167 36.2259 49.7653 31.4862 49.7653ZM62.8168 49.7653C58.1588 49.7653 54.3389 45.4167 54.3389 40.1213C54.3389 34.8258 58.0771 30.4698 62.8168 30.4698C67.5564 30.4698 71.3764 34.8182 71.2948 40.1213C71.2948 45.4167 67.5564 49.7653 62.8168 49.7653Z" fill="#E2E8F0"/>
</svg>
