<svg width="347" height="401" viewBox="0 0 347 401" fill="none" xmlns="http://www.w3.org/2000/svg">
<path d="M20.5 178L30.5 47.5L59.5 65.5L120.5 59L210.5 23.5L262.5 37.5L302 112L282 200L298.5 233L333.5 316L316 371L184.5 392L40.5 360L20.5 311L30.5 217L20.5 178Z" fill="#9DD4DB"/>
<path d="M32.7908 35.2662L45.135 26.7443L27.1066 0.629627L18.3704 31.1367L32.7908 35.2662ZM257.791 246.266L267.775 257.461L257.791 246.266ZM281.238 210.766L267.498 204.749L281.238 210.766ZM212 377L216.007 362.545C214.408 362.102 212.747 361.927 211.091 362.028L212 377ZM20.4467 43.788C39.6302 71.5759 62.0326 83.7826 86.6336 84.5019C109.613 85.1739 132.202 75.6109 151.774 66.2302C172.654 56.2226 190.243 46.4231 207.516 41.6352C223.706 37.1477 236.651 37.9837 248.679 47.1815L266.903 23.3508C244.93 6.5486 221.251 6.69709 199.503 12.7252C178.839 18.453 157.178 30.3723 138.808 39.1771C119.129 48.609 102.469 54.9522 87.5105 54.5148C74.1741 54.1248 59.9514 48.2064 45.135 26.7443L20.4467 43.788ZM247.807 235.072C242.401 239.893 229.941 244.368 210.268 245.93C191.421 247.427 168.716 246.04 145.879 241.94C123.041 237.839 100.72 231.14 82.5235 222.407C63.9531 213.494 51.4979 203.338 45.8361 193.362L19.7455 208.17C29.8337 225.945 48.7535 239.476 69.5426 249.453C90.7058 259.611 115.729 267.006 140.577 271.468C165.428 275.93 190.755 277.574 212.642 275.836C233.703 274.164 254.681 269.14 267.775 257.461L247.807 235.072ZM45.8361 193.362C35.4755 175.108 32.5772 146.606 34.3774 115.997C36.141 86.0116 42.2181 56.8317 47.2112 39.3956L18.3704 31.1367C12.8635 50.3673 6.34059 81.7374 4.4292 114.235C2.55448 146.11 4.90611 182.025 19.7455 208.17L45.8361 193.362ZM248.679 47.1815C270.293 63.7097 280.684 89.9211 282.648 119.688C284.613 149.477 277.921 180.949 267.498 204.749L294.978 216.784C307.131 189.035 314.895 152.776 312.583 117.713C310.268 82.6263 297.648 46.8619 266.903 23.3508L248.679 47.1815ZM267.498 204.749C261.213 219.101 254.092 229.466 247.807 235.072L267.775 257.461C278.511 247.886 287.776 233.229 294.978 216.784L267.498 204.749ZM269.073 219.542C287.846 245.564 301.33 270.577 309.015 292.59C316.797 314.885 318.126 332.619 314.687 344.99C311.567 356.211 304.235 364.358 289.832 368.353C274.372 372.642 250.461 372.095 216.007 362.545L207.993 391.455C244.789 401.655 274.852 403.641 297.851 397.261C321.907 390.588 337.519 374.864 343.591 353.026C349.342 332.339 346.109 307.827 337.338 282.703C328.469 257.297 313.407 229.718 293.403 201.99L269.073 219.542ZM211.091 362.028C171.8 364.413 138.54 366.14 111.198 364.65C83.5946 363.145 64.4586 358.432 51.9566 349.835C40.4827 341.946 32.7284 329.459 30.957 306.932C29.1272 283.66 33.8621 250.876 47.196 204.948L18.3856 196.584C4.7195 243.656 -1.20691 280.589 1.04935 309.283C3.36413 338.722 14.4434 360.449 34.9592 374.556C54.447 387.955 80.4571 393.019 109.565 394.605C138.934 396.206 173.95 394.337 212.909 391.972L211.091 362.028Z" fill="#12535B"/>
<path d="M91 116.528L82.0799 112.008C80.9581 114.221 80.6995 116.773 81.3546 119.167L91 116.528ZM140.679 111.242L134.706 119.262L134.706 119.262L140.679 111.242ZM105.567 169.761L95.922 172.4L99.4035 185.122L110.713 178.335L105.567 169.761ZM99.9201 121.048C101.595 117.744 106.257 114.67 114.189 114.089C121.933 113.522 129.887 115.674 134.706 119.262L146.652 103.222C137.276 96.2394 124.313 93.2942 112.728 94.1428C101.33 94.9777 88.2494 99.8328 82.0799 112.008L99.9201 121.048ZM134.706 119.262C134.688 119.249 135.142 119.612 135.88 120.792C136.582 121.913 137.338 123.447 138.069 125.366C139.539 129.22 140.658 133.956 141.187 138.543C141.732 143.276 141.55 147.003 141.025 149.104C140.759 150.172 140.591 150.05 141.074 149.487C141.813 148.628 143.315 147.68 145.161 147.68V167.68C149.844 167.68 153.662 165.525 156.242 162.524C158.566 159.82 159.763 156.621 160.43 153.947C161.773 148.565 161.734 142.152 161.055 136.255C160.359 130.212 158.888 123.828 156.757 118.241C154.782 113.061 151.639 106.936 146.652 103.222L134.706 119.262ZM145.161 147.68C133.527 147.68 114.765 152.579 100.422 161.186L110.713 178.335C122.235 171.421 137.473 167.68 145.161 167.68V147.68ZM115.213 167.121L100.645 113.888L81.3546 119.167L95.922 172.4L115.213 167.121Z" fill="#12535B"/>
<path d="M211.685 146L210.016 136.14L211.685 146ZM206.999 93.0592L199.537 86.4014L199.537 86.4014L206.999 93.0592ZM247.927 93.0593L257.911 92.5025L257.859 91.5649L257.633 90.6535L247.927 93.0593ZM255 146L254.366 155.98L269.231 156.924L264.477 142.808L255 146ZM210.016 136.14C209.292 136.263 209.461 136.074 209.946 136.334C210.341 136.546 210.21 136.67 209.824 135.948C208.887 134.195 208.063 130.483 208.161 124.933C208.254 119.665 209.156 113.894 210.542 108.925C212.031 103.591 213.69 100.581 214.46 99.7171L199.537 86.4014C195.635 90.7751 192.985 97.434 191.278 103.549C189.47 110.031 188.29 117.489 188.164 124.58C188.044 131.389 188.866 139.165 192.186 145.377C193.929 148.637 196.58 151.863 200.504 153.965C204.517 156.114 208.962 156.603 213.354 155.86L210.016 136.14ZM214.46 99.7171C215.056 99.0488 216.91 97.5971 220.127 96.1147C223.177 94.7093 226.682 93.6351 229.944 93.2044C233.331 92.7569 235.604 93.11 236.796 93.6219C237.499 93.9235 237.911 94.2188 238.22 95.4651L257.633 90.6535C255.755 83.0763 250.895 77.9095 244.685 75.2437C238.965 72.7882 232.685 72.6686 227.325 73.3766C221.838 74.1012 216.4 75.8106 211.757 77.9504C207.28 80.0131 202.69 82.868 199.537 86.4014L214.46 99.7171ZM237.942 93.6161C238.826 109.474 237.892 126.537 245.523 149.192L264.477 142.808C257.961 123.463 258.901 110.258 257.911 92.5025L237.942 93.6161ZM255 146C255.634 136.02 255.633 136.02 255.632 136.02C255.632 136.02 255.631 136.02 255.631 136.02C255.629 136.02 255.627 136.02 255.624 136.02C255.62 136.019 255.613 136.019 255.604 136.018C255.586 136.017 255.561 136.016 255.529 136.014C255.464 136.01 255.37 136.004 255.248 135.996C255.005 135.982 254.65 135.96 254.197 135.934C253.29 135.882 251.988 135.811 250.391 135.731C247.201 135.572 242.814 135.381 238.04 135.254C228.885 135.009 217.055 134.949 210.016 136.14L213.354 155.86C218.13 155.051 227.958 154.991 237.506 155.246C242.084 155.369 246.311 155.553 249.396 155.706C250.937 155.783 252.188 155.852 253.05 155.902C253.481 155.926 253.815 155.946 254.038 155.96C254.15 155.966 254.234 155.972 254.29 155.975C254.317 155.977 254.337 155.978 254.35 155.979C254.357 155.979 254.361 155.98 254.364 155.98C254.365 155.98 254.366 155.98 254.367 155.98C254.367 155.98 254.367 155.98 254.367 155.98C254.367 155.98 254.366 155.98 255 146Z" fill="#12535B"/>
</svg>
