<svg width="81" height="73" viewBox="0 0 81 73" fill="none" xmlns="http://www.w3.org/2000/svg">
<path d="M10.5603 0.451455C7.02707 2.55315 0.0660222 10.5647 0 12.6657V16.1435C0 20.552 4.11318 24.4266 7.84773 24.4266C12.332 24.4266 16.0682 20.7034 16.0685 16.2844C16.0685 20.7034 19.6766 24.4266 24.1612 24.4266C28.646 24.4266 32.1383 20.7034 32.1383 16.2844C32.1383 20.7034 35.9748 24.4266 40.4594 24.4266H40.5406C45.0255 24.4266 48.862 20.7034 48.862 16.2844C48.862 20.7034 52.3546 24.4266 56.8388 24.4266C61.3234 24.4266 64.9315 20.7034 64.9315 16.2844C64.9315 20.7034 68.6684 24.4266 73.1523 24.4266C76.8868 24.4266 81 20.5526 81 16.1435V12.6657C80.934 10.5644 73.9729 2.55249 70.4404 0.451455C59.4589 0.0651803 51.8459 -0.00162405 40.4997 2.95279e-05C29.1538 0.00102167 13.6854 0.178615 10.5596 0.451455H10.5603ZM32.0815 22.3504C31.6527 23.0992 31.1216 23.7844 30.5036 24.3859C28.8108 26.0441 26.4904 27.072 23.9324 27.072C21.4709 27.0743 19.1066 26.1094 17.3473 24.3846C16.734 23.7827 16.2679 23.1391 15.841 22.3897L15.8391 22.3911C15.4126 23.1418 14.8184 23.785 14.2037 24.3876C12.4438 26.1112 10.0798 27.0752 7.61863 27.073C7.31031 27.073 6.98944 26.9877 6.72997 26.8984C6.36949 30.6593 6.21731 34.2535 6.1635 36.8741L6.16284 36.8889C6.15624 38.2197 6.14964 39.3141 6.14304 40.8344C6.21236 48.7252 5.36298 66.4099 9.6158 70.7551C16.2061 72.2946 28.3331 72.9957 40.4993 73H40.5013C52.6672 72.9957 64.7942 72.2946 71.3845 70.7551C75.6374 66.4095 74.788 48.7249 74.8573 40.834C74.85 39.3141 74.8441 38.2197 74.8375 36.8886L74.8365 36.8737C74.783 34.2525 74.6308 30.6586 74.2704 26.8977C74.0109 26.987 73.6904 27.0723 73.3817 27.0723C70.9206 27.0745 68.5566 26.1105 66.7966 24.3869C66.182 23.7844 65.5878 23.1415 65.1609 22.3904L65.159 22.3891C64.7318 23.1385 64.266 23.7824 63.6527 24.384C61.8935 26.1086 59.5293 27.0734 57.0679 27.071C54.5102 27.071 52.1896 26.0425 50.4968 24.3846C49.8787 23.783 49.3476 23.0979 48.9188 22.3491C48.4946 23.0971 47.9684 23.7822 47.3554 24.3846C45.5957 26.1091 43.2313 27.0737 40.7697 27.0713C40.6806 27.0713 40.5914 27.0674 40.5023 27.0647H40.5C40.4109 27.0674 40.3217 27.0713 40.2316 27.0713C37.7701 27.0738 35.4056 26.1093 33.6459 24.3849C33.0329 23.7825 32.5067 23.0974 32.0825 22.3494L32.0815 22.3504ZM25.3189 31.111L25.3182 31.1143H25.3231C28.0013 31.12 30.3804 31.1143 33.3283 34.3375C35.6484 34.0937 38.0727 33.972 40.499 33.9757H40.501C42.9273 33.9724 45.3516 34.0937 47.672 34.3375C50.6199 31.114 52.999 31.1196 55.6772 31.1143H55.6818L55.6811 31.111C56.9465 31.111 62.0081 31.111 65.535 41.0348L69.3233 54.6486C72.1306 64.7765 68.4244 65.0242 63.8015 65.0331C56.9458 64.7774 53.1499 59.7896 53.1499 54.8024C49.3549 55.4255 44.9278 55.737 40.5007 55.7374H40.4987C36.0712 55.7374 31.6441 55.4255 27.8495 54.8024C27.8495 59.7896 24.0532 64.7774 17.1978 65.0331C12.5749 65.0242 8.86909 64.7768 11.6764 54.6486L15.4657 41.0351C18.9926 31.1114 24.0542 31.1114 25.3195 31.1114L25.3189 31.111ZM40.499 38.9099V38.9119C40.4924 38.9185 33.2818 45.5527 31.9854 47.9123L36.7074 47.7228V51.8482C36.7074 52.0413 38.6022 51.9626 40.499 51.8746H40.501C42.3972 51.9626 44.2923 52.0413 44.2923 51.8482V47.7228L49.0142 47.9123C47.7175 45.5527 40.5007 38.9119 40.5007 38.9119V38.9099L40.4997 38.9106L40.499 38.9099Z" fill="#E2E8F0"/>
</svg>
